Coordinates
version=1
nRows=15
nColumns=63
inDegrees=yes

Units are S.I. units (second, meters, Newtons, ...)
If the header above contains a line with 'inDegrees', this indicates whether rotational values are in degrees (yes) or radians (no).

endheader
time	pelvis_tilt	pelvis_list	pelvis_rotation	pelvis_tx	pelvis_ty	pelvis_tz	hip_flexion_r	hip_adduction_r	hip_rotation_r	knee_angle_r	knee_angle_r_beta	ankle_angle_r	subtalar_angle_r	mtp_angle_r	hip_flexion_l	hip_adduction_l	hip_rotation_l	knee_angle_l	knee_angle_l_beta	ankle_angle_l	subtalar_angle_l	mtp_angle_l	L5_S1_Flex_Ext	L5_S1_Lat_Bending	L5_S1_axial_rotation	L4_L5_Flex_Ext	L4_L5_Lat_Bending	L4_L5_axial_rotation	L3_L4_Flex_Ext	L3_L4_Lat_Bending	L3_L4_axial_rotation	L2_L3_Flex_Ext	L2_L3_Lat_Bending	L2_L3_axial_rotation	L1_L2_Flex_Ext	L1_L2_Lat_Bending	L1_L2_axial_rotation	L1_T12_Flex_Ext	L1_T12_Lat_Bending	L1_T12_axial_rotation	Abs_r3	Abs_r2	Abs_r1	Abs_t1	Abs_t2	neck_flexion	neck_bending	neck_rotation	arm_flex_r	arm_add_r	arm_rot_r	elbow_flex_r	pro_sup_r	wrist_flex_r	wrist_dev_r	arm_flex_l	arm_add_l	arm_rot_l	elbow_flex_l	pro_sup_l	wrist_flex_l	wrist_dev_l
1.116667	-3.498391	-1.577713	69.237435	0.199980	0.868424	0.600916	8.132425	3.930130	-1.362669	11.702263	0.204243	37.286059	6.566605	0.000000	6.114880	-1.451976	-4.328121	9.459864	0.165106	37.236502	2.092947	0.000000	0.428839	0.462684	-0.215282	0.796397	0.615369	-0.228737	0.704540	1.124969	-0.228737	0.490120	1.124969	-0.188372	0.398220	0.943505	-0.174917	0.245039	0.716697	-0.161462	3.063155	5.233971	-1.197335	0.000000	0.000000	27.477364	-3.821885	-4.453862	2.383009	-21.604278	81.732734	10.115017	17.556806	-19.606455	-0.104887	3.791873	-8.760883	15.418314	0.840596	88.138808	-31.446222	-10.156423
1.133333	-3.752870	-1.584901	69.156411	0.199908	0.868052	0.601688	8.272202	3.582791	-1.936679	11.727369	0.204681	37.627640	7.636109	0.000000	6.270943	-1.179115	-4.141668	9.336319	0.162950	37.203819	1.968374	0.000000	0.432812	0.425386	-0.185624	0.803775	0.565763	-0.197226	0.711067	1.034283	-0.197226	0.494661	1.034283	-0.162421	0.401909	0.867447	-0.150820	0.247309	0.658923	-0.139218	3.091534	4.812051	-1.032386	0.000000	0.000000	27.508762	-4.066303	-5.285687	2.511660	-21.451875	82.033270	10.109825	17.452472	-19.606723	-0.079244	3.877506	-8.844515	15.791202	0.836151	88.095788	-31.903836	-10.844948
1.150000	-3.981337	-1.581008	69.130565	0.199807	0.867776	0.602199	8.379104	3.261841	-2.436854	11.731480	0.204753	37.973605	8.545691	0.000000	6.396305	-0.904278	-3.796661	9.181972	0.160256	37.173210	1.730657	0.000000	0.436462	0.392052	-0.175244	0.810553	0.521429	-0.186197	0.717063	0.953234	-0.186197	0.498832	0.953234	-0.153339	0.405298	0.799472	-0.142386	0.249394	0.607288	-0.131433	3.117603	4.434967	-0.974657	0.000000	0.000000	27.527505	-4.297688	-5.982741	2.650705	-21.317174	82.374275	10.097798	17.290120	-19.573163	0.080923	3.922456	-8.914192	15.810086	0.828100	88.030757	-32.420038	-11.520018
1.166667	-4.177578	-1.567910	69.130738	0.199696	0.867589	0.602476	8.454630	2.977441	-2.838494	11.719620	0.204546	38.289908	9.274595	0.000000	6.478969	-0.641101	-3.387000	8.996825	0.157024	37.137588	1.429839	0.000000	0.439856	0.364101	-0.177342	0.816857	0.484255	-0.188426	0.722640	0.885276	-0.188426	0.502712	0.885276	-0.155174	0.408451	0.742476	-0.144091	0.251334	0.563993	-0.133007	3.141851	4.118788	-0.986324	0.000000	0.000000	27.530890	-4.479436	-6.486691	2.776154	-21.209153	82.660926	10.077260	17.036766	-19.470595	0.368775	3.928547	-8.973978	15.724523	0.823410	87.952134	-32.903327	-11.974528
1.183333	-4.330321	-1.548475	69.172669	0.199558	0.867480	0.602530	8.487605	2.748461	-3.095815	11.680480	0.203863	38.535482	9.724399	0.000000	6.524253	-0.403837	-2.927268	8.805692	0.153688	37.082065	1.056637	0.000000	0.442974	0.342781	-0.197154	0.822647	0.455898	-0.209476	0.727762	0.833437	-0.209476	0.506275	0.833437	-0.172510	0.411346	0.698998	-0.160188	0.253115	0.530967	-0.147866	3.164120	3.877603	-1.096513	0.000000	0.000000	27.521577	-4.641055	-6.815853	2.892048	-21.128345	82.892524	10.050358	16.750336	-19.319191	0.781250	3.884487	-9.019428	15.535436	0.820044	87.865823	-33.313695	-12.254243
1.200000	-4.434008	-1.526149	69.252796	0.199392	0.867437	0.602390	8.474981	2.583360	-3.209477	11.607367	0.202587	38.687706	9.891128	0.000000	6.533273	-0.199809	-2.396983	8.621638	0.150476	36.980178	0.545732	0.000000	0.446085	0.328639	-0.233086	0.828424	0.437089	-0.247654	0.732872	0.799052	-0.247654	0.509830	0.799052	-0.203950	0.414234	0.670160	-0.189382	0.254893	0.509061	-0.174814	3.186337	3.717626	-1.296354	0.000000	0.000000	27.504970	-4.779325	-6.977882	3.000925	-21.076350	83.092923	10.018299	16.425822	-19.120584	1.291309	3.794691	-9.048140	15.351137	0.821592	87.773294	-33.628107	-12.330567
1.216667	-4.488261	-1.500408	69.371352	0.199211	0.867450	0.602105	8.415570	2.485989	-3.177204	11.496492	0.200652	38.738470	9.774657	0.000000	6.510476	-0.036533	-1.832340	8.460486	0.147663	36.835021	-0.066597	0.000000	0.448967	0.321245	-0.285435	0.833777	0.427255	-0.303275	0.737608	0.781074	-0.303275	0.513124	0.781074	-0.249756	0.416911	0.655082	-0.231916	0.256540	0.497608	-0.214076	3.206927	3.633984	-1.587504	0.000000	0.000000	27.488487	-4.880318	-6.963398	3.114179	-21.051947	83.220098	9.992410	16.158128	-18.886871	1.886972	3.664882	-9.058092	15.063554	0.827014	87.732526	-33.870754	-12.297173
1.233333	-4.489181	-1.467321	69.535583	0.199004	0.867521	0.601720	8.307101	2.459248	-3.021595	11.345486	0.198016	38.695958	9.403989	0.000000	6.453288	0.079817	-1.228630	8.323426	0.145271	36.650764	-0.766787	0.000000	0.450856	0.320396	-0.350644	0.837284	0.426127	-0.372559	0.740711	0.779012	-0.372559	0.515283	0.779012	-0.306814	0.418665	0.653352	-0.284898	0.257619	0.496294	-0.262983	3.220417	3.624387	-1.950178	0.000000	0.000000	27.475135	-4.926502	-6.769989	3.230370	-21.054089	83.236120	9.966938	16.101082	-18.624931	2.563255	3.516356	-9.053066	14.770675	0.832580	87.729780	-34.025074	-12.205425
1.250000	-4.441459	-1.431336	69.717805	0.198767	0.867647	0.601306	8.173310	2.493518	-2.798402	11.170044	0.194954	38.598727	8.914480	0.000000	6.367737	0.147412	-0.622319	8.206740	0.143235	36.442779	-1.509539	0.000000	0.451994	0.325367	-0.418019	0.839398	0.432738	-0.444145	0.742581	0.791097	-0.444145	0.516584	0.791097	-0.365766	0.419722	0.663488	-0.339640	0.258269	0.503993	-0.313514	3.228549	3.680616	-2.324895	0.000000	0.000000	27.464955	-5.024519	-6.583632	3.334035	-21.087277	82.983779	9.961610	16.336628	-18.382442	3.298997	3.371841	-9.037169	14.694137	0.840978	87.704503	-34.072680	-12.021251
1.266667	-4.356615	-1.393478	69.912831	0.198514	0.867818	0.600890	8.026974	2.573349	-2.561815	10.977158	0.191588	38.481444	8.399065	0.000000	6.270848	0.172052	-0.047951	8.127566	0.141853	36.248160	-2.232670	0.000000	0.453250	0.334815	-0.485410	0.841730	0.445304	-0.515748	0.744644	0.814069	-0.515748	0.518019	0.814069	-0.424734	0.420888	0.682755	-0.394396	0.258987	0.518628	-0.364058	3.237517	3.787494	-2.699706	0.000000	0.000000	27.458618	-5.081363	-6.300998	3.434744	-21.140992	82.519929	9.950159	16.871316	-18.130600	4.133840	3.231851	-9.009542	14.628685	0.846713	87.692595	-34.026233	-11.901163
1.283333	-4.227985	-1.346847	70.115443	0.198232	0.868044	0.600493	7.863574	2.703052	-2.309449	10.771898	0.188005	38.353526	7.853506	0.000000	6.145393	0.152541	0.544434	8.061484	0.140699	36.054607	-2.988635	0.000000	0.452625	0.348940	-0.547950	0.840569	0.464090	-0.582197	0.743617	0.848412	-0.582197	0.517305	0.848412	-0.479456	0.420307	0.711558	-0.445209	0.258630	0.540508	-0.410962	3.233052	3.947276	-3.047532	0.000000	0.000000	27.454261	-5.135338	-6.008357	3.526040	-21.224397	81.915939	9.938431	17.671933	-17.885084	5.024667	3.113835	-8.966293	14.655703	0.849858	87.692836	-33.914011	-11.792405
1.300000	-4.063956	-1.294188	70.324431	0.197913	0.868307	0.600137	7.702601	2.865045	-2.136680	10.582466	0.184699	38.237634	7.384842	0.000000	6.013528	0.085460	1.024040	8.028944	0.140132	35.913587	-3.595295	0.000000	0.450421	0.366656	-0.604053	0.836477	0.487653	-0.641806	0.739997	0.891488	-0.641806	0.514786	0.891488	-0.528546	0.418261	0.747685	-0.490793	0.257371	0.567951	-0.453040	3.217313	4.147689	-3.359561	0.000000	0.000000	27.449558	-5.197454	-5.749518	3.602934	-21.337445	81.143131	9.937128	18.769724	-17.664860	5.996090	3.021456	-8.902626	14.657021	0.845868	87.708671	-33.783364	-11.762624
1.316667	-3.876849	-1.233553	70.521368	0.197585	0.868597	0.599822	7.544021	3.054235	-1.956901	10.412366	0.181730	38.112305	6.894701	0.000000	5.871274	-0.013103	1.430090	8.012665	0.139847	35.808567	-4.119703	0.000000	0.446668	0.386644	-0.649017	0.829507	0.514236	-0.689580	0.733831	0.940085	-0.689580	0.510497	0.940085	-0.567890	0.414776	0.788444	-0.527326	0.255226	0.598911	-0.486763	3.190505	4.373791	-3.609637	0.000000	0.000000	27.439590	-5.285765	-5.551107	3.656394	-21.475373	80.314054	9.944517	20.016924	-17.482124	6.989218	2.961704	-8.824482	14.679734	0.837254	87.748253	-33.632462	-11.718834
1.333333	-3.677482	-1.162413	70.705377	0.197258	0.868912	0.599552	7.396958	3.247589	-1.858413	10.287294	0.179547	37.989215	6.493004	0.000000	5.726321	-0.139547	1.682137	8.018940	0.139957	35.766330	-4.435516	0.000000	0.440740	0.407360	-0.682113	0.818498	0.541789	-0.724745	0.724092	0.990455	-0.724745	0.503722	0.990455	-0.596849	0.409271	0.830688	-0.554217	0.251839	0.631000	-0.511585	3.148161	4.608137	-3.793710	0.000000	0.000000	27.430822	-5.413467	-5.437029	3.705037	-21.607344	79.959211	9.904614	20.797552	-17.305535	7.881723	2.943506	-8.734309	14.742989	0.826362	87.797481	-33.503027	-11.597540
1.350000	-3.481926	-1.090240	70.846751	0.196972	0.869249	0.599301	7.278078	3.433796	-1.804764	10.220396	0.178380	37.863713	6.175146	0.000000	5.579900	-0.283459	1.728753	8.026019	0.140080	35.786148	-4.489427	0.000000	0.434908	0.428042	-0.695848	0.807668	0.569296	-0.739338	0.714510	1.040742	-0.739338	0.497056	1.040742	-0.608867	0.403856	0.872864	-0.565376	0.248506	0.663038	-0.521886	3.106504	4.842101	-3.870096	0.000000	0.000000	27.419253	-5.573672	-5.383031	3.664171	-21.733510	79.211415	9.874691	21.823273	-17.196155	8.558033	2.971785	-8.641945	15.119996	0.817798	87.833483	-33.353195	-11.185702
